PathFileType	4	(X/Y/Z)	/Users/niels/Desktop/University/Third Semester/Perception and Action/Exam/Gymnastics Motion Tracking/Code for Gym Tracking/Analyzed Data/Webcam_Backflip/id2_1_pure_Sports2D/id2_1_pure_Sports2D_px_person00.trc
DataRate	CameraRate	NumFrames	NumMarkers	Units	OrigDataRate	OrigDataStartFrame	OrigNumFrames
29.875	29.875	8	22	m	29.875	0	240
Frame#	Time	Hip			RHip			RKnee			RAnkle			RBigToe			RSmallToe			RHeel			LHip			LKnee			LAnkle			LBigToe			LSmallToe			LHeel			Neck			Head			Nose			RShoulder			RElbow			RWrist			LShoulder			LElbow			LWrist		
		X1	Y1	Z1	X2	Y2	Z2	X3	Y3	Z3	X4	Y4	Z4	X5	Y5	Z5	X6	Y6	Z6	X7	Y7	Z7	X8	Y8	Z8	X9	Y9	Z9	X10	Y10	Z10	X11	Y11	Z11	X12	Y12	Z12	X13	Y13	Z13	X14	Y14	Z14	X15	Y15	Z15	X16	Y16	Z16	X17	Y17	Z17	X18	Y18	Z18	X19	Y19	Z19	X20	Y20	Z20	X21	Y21	Z21	X22	Y22	Z22
0	0.0	0.95060207029784	-0.5557858454062596	0.0	0.9506068370645852	-0.5557807938152172	0.0	0.9506038325314398	-0.6722519936625144	0.0	0.9348145980039115	-0.7965940717701182	0.0	0.966393062881961	-0.8143544564491657	0.0	0.954544914278371	-0.8202782947536063	0.0	0.9269168887163235	-0.8143606531181405	0.0	0.9545496413618281	-0.5557847354280175	0.0	0.9545505232745688	-0.6722440799420205	0.0	0.9387653632603737	-0.7906760484223287	0.0	0.9782412845711304	-0.8084312991435898	0.0	0.9723311201780964	-0.8025086706525633	0.0	0.9269290768403172	-0.8064649930496599	0.0	0.9565218373644849	-0.40182202558434965	0.0	0.9841642206719641	-0.3208915308928138	0.0	0.9880987300881764	-0.36234895255081134	0.0	0.9466533167055637	-0.4057708794124409	0.0	0.9525786694160046	-0.3248309155404073	0.0	0.9585011976122697	-0.2557443022203357	0.0	0.9545549159829165	-0.40971402340951696	0.0	0.9604773513824957	-0.33272936603079145	0.0	0.9585036234905557	-0.2636384618293661	0.0
1	0.03347280334728033	0.9506494316108882	-0.559511969132355	0.0	0.9510566907922948	-0.5594854819838747	0.0	0.9507098860576759	-0.6754977314853348	0.0	0.9352002286786592	-0.7986991993561615	0.0	0.9684717257769873	-0.8163828224356394	0.0	0.9567540588614512	-0.8223680061238036	0.0	0.92722752168499	-0.8168474706400761	0.0	0.954323965638673	-0.5594949022105608	0.0	0.9540790861972254	-0.6754107890872108	0.0	0.9399064933460733	-0.7923079081166219	0.0	0.9798757053763826	-0.8105630238311822	0.0	0.9744063658783639	-0.8045257966980123	0.0	0.9282271874457693	-0.8080878198348782	0.0	0.9571274685190438	-0.40551822350527233	0.0	0.9837276335388331	-0.3261852170531966	0.0	0.9871692010154286	-0.3674988513697168	0.0	0.9474803467377925	-0.4102018539441786	0.0	0.9516440900941386	-0.3282268335242092	0.0	0.9575469582633899	-0.25914750869330644	0.0	0.954767238061645	-0.4140560626193616	0.0	0.9590951725030434	-0.3368112728363501	0.0	0.9579823720757731	-0.2676510132096751	0.0
2	0.06694560669456066	0.9506840601172752	-0.5630663816874183	0.0	0.9513817581427633	-0.5630665042489627	0.0	0.9508399839077236	-0.678567549395855	0.0	0.9355398392741595	-0.8008166299656811	0.0	0.9701189228048694	-0.8183717876323392	0.0	0.9585345294885286	-0.8243866305531324	0.0	0.9275195561151565	-0.8192502689793302	0.0	0.954163311632033	-0.563083038881248	0.0	0.9538119856001794	-0.6783859343354516	0.0	0.940931878242987	-0.7939949634500579	0.0	0.9812874966805963	-0.8126065351873384	0.0	0.9762011672248516	-0.8064888445632324	0.0	0.9295622595567732	-0.8097945427944034	0.0	0.9575795910659889	-0.4088850936129442	0.0	0.9832277563666556	-0.3308880416775288	0.0	0.9864264889724252	-0.37197805434411013	0.0	0.9481859991491626	-0.4142291589203019	0.0	0.9508701848592018	-0.3314443076560783	0.0	0.9566768021729645	-0.26237096532779813	0.0	0.9548657818774687	-0.4179900714442674	0.0	0.9579924149458319	-0.3406581198678003	0.0	0.9574385814508324	-0.27145076119178807	0.0
3	0.10041841004184099	0.9507103535565151	-0.5662471661747008	0.0	0.951542935853138	-0.5663069688304551	0.0	0.9510556881845025	-0.6812613696956973	0.0	0.9358153047037805	-0.8027796512589076	0.0	0.9710476195630227	-0.8201684664225933	0.0	0.9596547660410493	-0.8261590385668884	0.0	0.9277850129106429	-0.8213285134095201	0.0	0.9541146208465617	-0.5663299303104409	0.0	0.9538676201970987	-0.680970709277607	0.0	0.9417435044614796	-0.7956483690132911	0.0	0.9822717609837887	-0.8144352801343944	0.0	0.9774549051895651	-0.8082849177788829	0.0	0.9308056721336161	-0.811467515276117	0.0	0.9578105979207456	-0.4116347064361062	0.0	0.9826981107533601	-0.3346045053977789	0.0	0.9858947405611856	-0.37537128909464035	0.0	0.9486778650981988	-0.4174943599564217	0.0	0.9503202957694562	-0.3342273369633047	0.0	0.9559706209004581	-0.2651799780638946	0.0	0.9547849302926522	-0.4211211063659188	0.0	0.9573066491505747	-0.3439297950306466	0.0	0.9568851603867232	-0.2748151459150911	0.0
4	0.13389121338912133	0.950758825648595	-0.5688356149683855	0.0	0.9515937415594317	-0.5689189091211394	0.0	0.9514238292665336	-0.6833889608242546	0.0	0.9360183089611457	-0.8043157286705429	0.0	0.971209918791014	-0.8215599302612816	0.0	0.9600972255218276	-0.8274694967719509	0.0	0.9280029183502753	-0.822814193985572	0.0	0.9541828169582883	-0.5689424310544184	0.0	0.9542264812538719	-0.6830094514516114	0.0	0.9422812085465622	-0.7970808649413779	0.0	0.9827032139322575	-0.8158938611987098	0.0	0.9780453288945601	-0.8098012261958215	0.0	0.9317317447765014	-0.8128842499988496	0.0	0.9578329596742409	-0.41356376447654924	0.0	0.9822846478129635	-0.33723484336006027	0.0	0.985445995156961	-0.37762221527546985	0.0	0.9488951016266701	-0.4197597360805501	0.0	0.9499279944708233	-0.33629207492304286	0.0	0.9554649468440498	-0.2673411255023351	0.0	0.9545163235738641	-0.423180895554589	0.0	0.9570090602618693	-0.34622587236545865	0.0	0.956399799786688	-0.27753319244720104	0.0
5	0.16736401673640167	0.9508882359941425	-0.5705864535225209	0.0	0.9516346468135451	-0.5706194701979748	0.0	0.9519633584031838	-0.6847608624189917	0.0	0.9361393831671724	-0.8051922848054506	0.0	0.9708120926809187	-0.8223680464936838	0.0	0.9600135241109462	-0.8281506804859743	0.0	0.9281450288477137	-0.8235497818290489	0.0	0.9543448242073956	-0.570628975081561	0.0	0.9547753477661883	-0.6843749527809182	0.0	0.9425208678492275	-0.7980793292001289	0.0	0.9825959337525805	-0.816826562041005	0.0	0.9780302016472135	-0.8109205782601437	0.0	0.9321716858589365	-0.8138279549128623	0.0	0.9576963057836699	-0.4145469202687287	0.0	0.9821061211228531	-0.3387821562902399	0.0	0.9850140501222533	-0.37880191864921575	0.0	0.9488089854221314	-0.420891044356795	0.0	0.9495935751145197	-0.337453496972939	0.0	0.9551022870219806	-0.26867831808504233	0.0	0.9541508530526848	-0.4240986397376398	0.0	0.9569648527932605	-0.34729948123593973	0.0	0.9560412732319391	-0.279369453781406	0.0
6	0.20083682008368198	0.951174285818074	-0.5712859522785233	0.0	0.9517545109755129	-0.5712138647204504	0.0	0.9526297568338834	-0.685223471729095	0.0	0.9361906862757063	-0.805274433651459	0.0	0.970230394189092	-0.822489103724584	0.0	0.9596866643343692	-0.8281242198127805	0.0	0.9282141895054855	-0.8234670362634984	0.0	0.9546027122539436	-0.57118320099066	0.0	0.9554095166818911	-0.6849483323953703	0.0	0.9425144050703641	-0.7984267693688799	0.0	0.9821221639537343	-0.8171163588976293	0.0	0.9776211964336708	-0.811491067997641	0.0	0.9321321393440091	-0.8141015073368694	0.0	0.9574685726939767	-0.41454610277251913	0.0	0.9821221133359768	-0.33917933903938324	0.0	0.984704028591483	-0.37891253439300876	0.0	0.9484414905656199	-0.4208406498456692	0.0	0.9492717467276676	-0.3376866008420844	0.0	0.9547537291141419	-0.2691197797787786	0.0	0.9538930964308792	-0.42394404315678313	0.0	0.9570134489315094	-0.3472004050717517	0.0	0.95576738306283	-0.2801118417947692	0.0
7	0.23430962343096232	0.9516694542788935	-0.5708259052109592	0.0	0.9520072277843322	-0.5706338202531023	0.0	0.953347382077273	-0.6847112343830348	0.0	0.936208699827415	-0.8045220835034795	0.0	0.969826621878715	-0.8218628162449806	0.0	0.95942548734677	-0.8273718724512029	0.0	0.928239053948343	-0.8225485977143042	0.0	0.9549885990313193	-0.5705258920641677	0.0	0.9560704040677486	-0.6846256984412613	0.0	0.9423936749817499	-0.7979469668576521	0.0	0.9815379073619754	-0.8166976122374386	0.0	0.9771086924189671	-0.8113934718276843	0.0	0.9317627968398704	-0.8135683780380568	0.0	0.9572249208160001	-0.41361590607737886	0.0	0.9821774429533086	-0.3383933708292952	0.0	0.9846485070565071	-0.37796412250893724	0.0	0.9478889451262196	-0.41969974374147084	0.0	0.948957599378517	-0.33705056133065886	0.0	0.9543070777406574	-0.26870466066685195	0.0	0.9539449877375622	-0.4228547685285763	0.0	0.9570277358700875	-0.34614846671069666	0.0	0.9554938716869767	-0.27970913050736673	0.0
